<svg xmlns="http://www.w3.org/2000/svg" width="1200" height="600" viewBox="0 0 1200 600" role="img" aria-label="Split bill illustration">
  <defs>
    <linearGradient id="bg2" x1="0" y1="0" x2="1" y2="1">
      <stop offset="0" stop-color="#a855f7" stop-opacity="0.20"/>
      <stop offset="1" stop-color="#38bdf8" stop-opacity="0.14"/>
    </linearGradient>
    <filter id="soft2" x="-20%" y="-20%" width="140%" height="140%">
      <feGaussianBlur stdDeviation="20"/>
    </filter>
  </defs>
  <rect width="1200" height="600" rx="34" fill="url(#bg2)"/>
  <circle cx="220" cy="450" r="220" fill="#38bdf8" opacity="0.16" filter="url(#soft2)"/>
  <circle cx="980" cy="170" r="180" fill="#a855f7" opacity="0.14" filter="url(#soft2)"/>
  <circle cx="1040" cy="470" r="140" fill="#22c55e" opacity="0.10" filter="url(#soft2)"/>

  <!-- Receipt -->
  <g transform="translate(210 120)">
    <rect x="0" y="0" width="340" height="420" rx="20" fill="#f8fafc" opacity="0.92" stroke="#94a3b8" stroke-opacity="0.22"/>
    <rect x="36" y="46" width="268" height="14" rx="7" fill="#0f172a" opacity="0.12"/>
    <rect x="36" y="76" width="196" height="10" rx="5" fill="#0f172a" opacity="0.08"/>
    <rect x="36" y="110" width="268" height="1" fill="#94a3b8" opacity="0.30"/>
    <g opacity="0.85">
      <rect x="36" y="140" width="190" height="10" rx="5" fill="#0f172a" opacity="0.10"/>
      <rect x="244" y="140" width="60" height="10" rx="5" fill="#0f172a" opacity="0.08"/>
      <rect x="36" y="172" width="166" height="10" rx="5" fill="#0f172a" opacity="0.10"/>
      <rect x="244" y="172" width="60" height="10" rx="5" fill="#0f172a" opacity="0.08"/>
      <rect x="36" y="204" width="210" height="10" rx="5" fill="#0f172a" opacity="0.10"/>
      <rect x="244" y="204" width="60" height="10" rx="5" fill="#0f172a" opacity="0.08"/>
      <rect x="36" y="236" width="152" height="10" rx="5" fill="#0f172a" opacity="0.10"/>
      <rect x="244" y="236" width="60" height="10" rx="5" fill="#0f172a" opacity="0.08"/>
    </g>
    <rect x="36" y="286" width="268" height="1" fill="#94a3b8" opacity="0.30"/>
    <rect x="36" y="312" width="120" height="12" rx="6" fill="#0f172a" opacity="0.12"/>
    <rect x="220" y="312" width="84" height="12" rx="6" fill="#0f172a" opacity="0.10"/>
    <g transform="translate(36 352)">
      <rect x="0" y="0" width="268" height="44" rx="14" fill="#ecfeff" opacity="0.95" stroke="#94a3b8" stroke-opacity="0.18"/>
      <circle cx="26" cy="22" r="10" fill="#38bdf8" opacity="0.35"/>
      <rect x="48" y="16" width="130" height="10" rx="5" fill="#0f172a" opacity="0.10"/>
      <rect x="196" y="16" width="56" height="10" rx="5" fill="#0f172a" opacity="0.08"/>
    </g>
  </g>

  <!-- Split bubbles -->
  <g transform="translate(650 150)">
    <rect x="0" y="0" width="430" height="300" rx="22" fill="#0b1222" opacity="0.58"/>
    <g transform="translate(28 26)" opacity="0.95">
      <circle cx="24" cy="24" r="24" fill="#22c55e" opacity="0.22"/>
      <rect x="62" y="14" width="210" height="12" rx="6" fill="#e2e8f0" opacity="0.34"/>
      <rect x="62" y="36" width="160" height="10" rx="5" fill="#e2e8f0" opacity="0.22"/>
      <rect x="300" y="14" width="90" height="32" rx="16" fill="#22c55e" opacity="0.22"/>
    </g>
    <g transform="translate(28 104)" opacity="0.95">
      <circle cx="24" cy="24" r="24" fill="#38bdf8" opacity="0.22"/>
      <rect x="62" y="14" width="240" height="12" rx="6" fill="#e2e8f0" opacity="0.34"/>
      <rect x="62" y="36" width="140" height="10" rx="5" fill="#e2e8f0" opacity="0.22"/>
      <rect x="300" y="14" width="90" height="32" rx="16" fill="#38bdf8" opacity="0.22"/>
    </g>
    <g transform="translate(28 182)" opacity="0.95">
      <circle cx="24" cy="24" r="24" fill="#a855f7" opacity="0.22"/>
      <rect x="62" y="14" width="220" height="12" rx="6" fill="#e2e8f0" opacity="0.34"/>
      <rect x="62" y="36" width="180" height="10" rx="5" fill="#e2e8f0" opacity="0.22"/>
      <rect x="300" y="14" width="90" height="32" rx="16" fill="#a855f7" opacity="0.22"/>
    </g>
  </g>
</svg>

