<svg xmlns="http://www.w3.org/2000/svg" width="1200" height="600" viewBox="0 0 1200 600" role="img" aria-label="Status illustration">
  <defs>
    <linearGradient id="bg3" x1="0" y1="0" x2="1" y2="1">
      <stop offset="0" stop-color="#22c55e" stop-opacity="0.18"/>
      <stop offset="1" stop-color="#0ea5e9" stop-opacity="0.14"/>
    </linearGradient>
    <filter id="soft3" x="-20%" y="-20%" width="140%" height="140%">
      <feGaussianBlur stdDeviation="18"/>
    </filter>
  </defs>
  <rect width="1200" height="600" rx="34" fill="url(#bg3)"/>
  <circle cx="180" cy="160" r="180" fill="#22c55e" opacity="0.14" filter="url(#soft3)"/>
  <circle cx="1020" cy="460" r="220" fill="#38bdf8" opacity="0.16" filter="url(#soft3)"/>
  <circle cx="940" cy="140" r="120" fill="#a855f7" opacity="0.10" filter="url(#soft3)"/>

  <!-- Timeline -->
  <g transform="translate(210 130)" opacity="0.95">
    <rect x="0" y="0" width="780" height="340" rx="22" fill="#0b1222" opacity="0.62"/>
    <g transform="translate(42 46)">
      <circle cx="18" cy="18" r="18" fill="#22c55e" opacity="0.35"/>
      <path d="M10 18l6 6 14-16" fill="none" stroke="#16a34a" stroke-width="5" stroke-linecap="round" stroke-linejoin="round"/>
      <rect x="56" y="10" width="310" height="12" rx="6" fill="#e2e8f0" opacity="0.32"/>
      <rect x="56" y="32" width="240" height="10" rx="5" fill="#e2e8f0" opacity="0.20"/>
      <rect x="56" y="60" width="680" height="1" fill="#94a3b8" opacity="0.18"/>
    </g>
    <g transform="translate(42 134)">
      <circle cx="18" cy="18" r="18" fill="#38bdf8" opacity="0.30"/>
      <path d="M18 8v20M8 18h20" fill="none" stroke="#0284c7" stroke-width="5" stroke-linecap="round"/>
      <rect x="56" y="10" width="360" height="12" rx="6" fill="#e2e8f0" opacity="0.32"/>
      <rect x="56" y="32" width="280" height="10" rx="5" fill="#e2e8f0" opacity="0.20"/>
      <rect x="56" y="60" width="680" height="1" fill="#94a3b8" opacity="0.18"/>
    </g>
    <g transform="translate(42 222)">
      <circle cx="18" cy="18" r="18" fill="#a855f7" opacity="0.26"/>
      <path d="M12 12l12 12M24 12 12 24" fill="none" stroke="#7c3aed" stroke-width="5" stroke-linecap="round"/>
      <rect x="56" y="10" width="330" height="12" rx="6" fill="#e2e8f0" opacity="0.32"/>
      <rect x="56" y="32" width="210" height="10" rx="5" fill="#e2e8f0" opacity="0.20"/>
    </g>
  </g>

  <!-- Status badge -->
  <g transform="translate(860 90)" opacity="0.92">
    <rect x="0" y="0" width="250" height="86" rx="18" fill="#f8fafc" opacity="0.90" stroke="#94a3b8" stroke-opacity="0.22"/>
    <circle cx="38" cy="43" r="18" fill="#22c55e" opacity="0.26"/>
    <path d="M30 43l6 6 14-16" fill="none" stroke="#16a34a" stroke-width="5" stroke-linecap="round" stroke-linejoin="round"/>
    <rect x="68" y="30" width="150" height="12" rx="6" fill="#0f172a" opacity="0.12"/>
    <rect x="68" y="50" width="110" height="10" rx="5" fill="#0f172a" opacity="0.08"/>
  </g>
</svg>

