<svg xmlns="http://www.w3.org/2000/svg" width="720" height="720" viewBox="0 0 720 720" fill="none" aria-hidden="true">
  <rect width="720" height="720" fill="rgba(255,255,255,0)"/>

  <!-- Light contour lines -->
  <g stroke="rgba(15,23,42,0.06)" stroke-width="2">
    <path d="M-40 92 C 90 12, 220 12, 360 92 C 500 172, 640 172, 760 92" />
    <path d="M-40 132 C 90 52, 220 52, 360 132 C 500 212, 640 212, 760 132" />
    <path d="M-40 172 C 90 92, 220 92, 360 172 C 500 252, 640 252, 760 172" />
    <path d="M-40 212 C 90 132, 220 132, 360 212 C 500 292, 640 292, 760 212" />
    <path d="M-40 252 C 90 172, 220 172, 360 252 C 500 332, 640 332, 760 252" />
    <path d="M-40 292 C 90 212, 220 212, 360 292 C 500 372, 640 372, 760 292" />
    <path d="M-40 332 C 90 252, 220 252, 360 332 C 500 412, 640 412, 760 332" />
    <path d="M-40 372 C 90 292, 220 292, 360 372 C 500 452, 640 452, 760 372" />
    <path d="M-40 412 C 90 332, 220 332, 360 412 C 500 492, 640 492, 760 412" />
    <path d="M-40 452 C 90 372, 220 372, 360 452 C 500 532, 640 532, 760 452" />
    <path d="M-40 492 C 90 412, 220 412, 360 492 C 500 572, 640 572, 760 492" />
    <path d="M-40 532 C 90 452, 220 452, 360 532 C 500 612, 640 612, 760 532" />
    <path d="M-40 572 C 90 492, 220 492, 360 572 C 500 652, 640 652, 760 572" />
    <path d="M-40 612 C 90 532, 220 532, 360 612 C 500 692, 640 692, 760 612" />
  </g>
</svg>

